:FULLY-SPECIFIED
:FORCE-ALL-JOINTS-BE-3DOF
:DEGREES
408
root 4.22015 15.9777 -11.8154 3.88434 -20.6174 -5.36105
lfemur -23.47 8.29749 -3.50353
ltibia 53.8182 -0 0
lfoot -14.3845 9.80928 0.861295
ltoes -2.97978 0 0
rfemur -36.8231 -1.43583 7.88014
rtibia 48.0215 -0 0
rfoot 2.57119 -0.255716 0.170912
rtoes -11.849 0 0
lowerback 5.0199 1.75459 2.31552
upperback 2.00953 2.41514 -0.411761
thorax -0.561826 1.223 -1.93835
lowerneck -6.69174 1.70965 7.08569
upperneck 3.54009 1.67832 -0.852964
head 2.57533 0.929825 -1.44433
lclavicle -2.48348e-14 1.11531e-14 -1.09964e-32
lhumerus -44.3608 -23.7152 98.3482
lradius 50.2738 -0 0
lwrist 13.7405 0 0
lhand -16.2685 1.53048 0.312814
lfingers 7.12502 -0 0
lthumb 9.93115 31.0901 0.25289
rclavicle -2.48348e-14 1.11531e-14 -1.09964e-32
rhumerus -44.3559 5.39025 -88.5751
rradius 71.9594 -0 0
rwrist 10.9187 0 0
rhand -34.7327 -25.3245 0.325009
rfingers 7.12502 -0 0
rthumb -7.88287 -55.0582 0.292725
409
root 4.16383 15.9715 -11.6958 3.83065 -21.1293 -5.43186
lfemur -23.7676 8.30157 -3.49558
ltibia 53.8787 -0 0
lfoot -14.842 9.58233 0.820908
ltoes -3.24863 0 0
rfemur -36.7677 -1.13207 7.63725
rtibia 47.9714 -0 0
rfoot 2.75275 -0.141582 0.162937
rtoes -12.0062 0 0
lowerback 5.11688 1.79982 2.36029
upperback 2.0121 2.47992 -0.434946
thorax -0.610233 1.25454 -1.98988
lowerneck -6.67849 1.84402 7.21637
upperneck 3.5792 1.85219 -0.95252
head 2.58858 1.01548 -1.49278
lclavicle -2.48481e-14 1.10524e-14 -1.04839e-32
lhumerus -44.3173 -23.6539 98.2061
lradius 50.1844 -0 0
lwrist 13.6623 0 0
lhand -16.5473 1.39462 0.298202
lfingers 7.12502 -0 0
lthumb 9.6628 30.976 0.24108
rclavicle -2.48481e-14 1.10524e-14 -1.04839e-32
rhumerus -44.5305 5.27054 -88.5653
rradius 71.8058 -0 0
rwrist 11.003 0 0
rhand -34.5227 -25.137 0.309833
rfingers 7.12502 -0 0
rthumb -7.68045 -54.883 0.279058
410
root 4.10752 15.9653 -11.5762 3.77744 -21.6412 -5.50241
lfemur -24.0653 8.30569 -3.48764
ltibia 53.9392 -0 0
lfoot -15.2993 9.35572 0.77871
ltoes -3.51748 0 0
rfemur -36.7136 -0.828081 7.39468
rtibia 47.9213 -0 0
rfoot 2.93429 -0.0274752 0.154601
rtoes -12.1634 0 0
lowerback 5.2139 1.84497 2.40514
upperback 2.01464 2.54469 -0.45813
thorax -0.658669 1.28604 -2.04143
lowerneck -6.66494 1.97836 7.3471
upperneck 3.61801 2.02614 -1.05197
head 2.60177 1.10114 -1.54122
lclavicle -2.48614e-14 1.09517e-14 -9.94803e-33
lhumerus -44.274 -23.5926 98.064
lradius 50.0951 -0 0
lwrist 13.5841 0 0
lhand -16.8261 1.25883 0.282928
lfingers 7.12502 -0 0
lthumb 9.39447 30.8619 0.228735
rclavicle -2.48614e-14 1.09517e-14 -9.94803e-33
rhumerus -44.7051 5.15086 -88.5551
rradius 71.6522 -0 0
rwrist 11.0872 0 0
rhand -34.3128 -24.9496 0.293969
rfingers 7.12502 -0 0
rthumb -7.47806 -54.7078 0.264773
411
root 4.05121 15.9591 -11.4566 3.72473 -22.1532 -5.57269
lfemur -24.363 8.30985 -3.47973
ltibia 53.9996 -0 0
lfoot -15.7565 9.12945 0.734706
ltoes -3.78633 0 0
rfemur -36.6607 -0.523867 7.15242
rtibia 47.8712 -0 0
rfoot 3.11582 0.086605 0.145903
rtoes -12.3206 0 0
lowerback 5.31096 1.89005 2.45007
upperback 2.01716 2.60947 -0.481311
thorax -0.707133 1.31749 -2.09302
lowerneck -6.65107 2.11266 7.47787
upperneck 3.65652 2.20015 -1.15131
head 2.61488 1.18681 -1.58963
lclavicle -2.48746e-14 1.0851e-14 -9.38889e-33
lhumerus -44.2309 -23.5311 97.9221
lradius 50.0058 -0 0
lwrist 13.506 0 0
lhand -17.1048 1.12312 0.266995
lfingers 7.12502 -0 0
lthumb 9.12616 30.7479 0.215856
rclavicle -2.48746e-14 1.0851e-14 -9.38889e-33
rhumerus -44.8796 5.03121 -88.5446
rradius 71.4986 -0 0
rwrist 11.1715 0 0
rhand -34.1029 -24.7622 0.27742
rfingers 7.12502 -0 0
rthumb -7.27573 -54.5327 0.249869
412
root 3.9949 15.9529 -11.337 3.6725 -22.6653 -5.64273
lfemur -24.6606 8.31405 -3.47184
ltibia 54.0601 -0 0
lfoot -16.2135 8.90354 0.688898
ltoes -4.05518 0 0
rfemur -36.6091 -0.219432 6.91044
rtibia 47.8211 -0 0
rfoot 3.29732 0.200657 0.136844
rtoes -12.4778 0 0
lowerback 5.40806 1.93505 2.49507
upperback 2.01965 2.67426 -0.504492
thorax -0.755626 1.3489 -2.14463
lowerneck -6.6369 2.24694 7.60868
upperneck 3.69473 2.37422 -1.25054
head 2.62791 1.2725 -1.63803
lclavicle -2.48879e-14 1.07503e-14 -8.80645e-33
lhumerus -44.1879 -23.4696 97.7803
lradius 49.9165 -0 0
lwrist 13.4278 0 0
lhand -17.3834 0.987485 0.250401
lfingers 7.12502 -0 0
lthumb 8.85788 30.6339 0.202444
rclavicle -2.48879e-14 1.07503e-14 -8.80645e-33
rhumerus -45.0542 4.9116 -88.5337
rradius 71.345 -0 0
rwrist 11.2558 0 0
rhand -33.8931 -24.5749 0.260184
rfingers 7.12502 -0 0
rthumb -7.07344 -54.3577 0.234347
413
root 3.93859 15.9467 -11.2174 3.62076 -23.1774 -5.71252
lfemur -24.9583 8.3183 -3.46397
ltibia 54.1206 -0 0
lfoot -16.6702 8.67801 0.64129
ltoes -4.32403 0 0
rfemur -36.5589 0.0852181 6.66874
rtibia 47.771 -0 0
rfoot 3.47881 0.31468 0.127424
rtoes -12.635 0 0
lowerback 5.50519 1.97997 2.54016
upperback 2.02211 2.73904 -0.52767
thorax -0.804149 1.38027 -2.19627
lowerneck -6.62242 2.38118 7.73954
upperneck 3.73265 2.54837 -1.34967
head 2.64088 1.35819 -1.68641
lclavicle -2.49011e-14 1.06496e-14 -8.20071e-33
lhumerus -44.1452 -23.4079 97.6386
lradius 49.8271 -0 0
lwrist 13.3496 0 0
lhand -17.6621 0.851934 0.233148
lfingers 7.12502 -0 0
lthumb 8.58963 30.52 0.188498
rclavicle -2.49011e-14 1.06496e-14 -8.20071e-33
rhumerus -45.2288 4.79202 -88.5224
rradius 71.1914 -0 0
rwrist 11.3401 0 0
rhand -33.6833 -24.3877 0.242262
rfingers 7.12502 -0 0
rthumb -6.8712 -54.1827 0.218208
414
root 3.88228 15.9405 -11.0979 3.56949 -23.6896 -5.78208
lfemur -25.256 8.32258 -3.45612
ltibia 54.1811 -0 0
lfoot -17.1268 8.45286 0.591887
ltoes -4.59288 0 0
rfemur -36.5099 0.390077 6.42729
rtibia 47.7208 -0 0
rfoot 3.66028 0.428672 0.117643
rtoes -12.7923 0 0
lowerback 5.60236 2.02482 2.58532
upperback 2.02455 2.80382 -0.550847
thorax -0.8527 1.41159 -2.24793
lowerneck -6.60763 2.51539 7.87044
upperneck 3.77027 2.72258 -1.4487
head 2.65377 1.4439 -1.73477
lclavicle -2.49144e-14 1.05488e-14 -7.57168e-33
lhumerus -44.1026 -23.3462 97.497
lradius 49.7378 -0 0
lwrist 13.2714 0 0
lhand -17.9407 0.716468 0.215236
lfingers 7.12502 -0 0
lthumb 8.32141 30.4062 0.174019
rclavicle -2.49144e-14 1.05488e-14 -7.57168e-33
rhumerus -45.4033 4.67248 -88.5108
rradius 71.0378 -0 0
rwrist 11.4243 0 0
rhand -33.4736 -24.2005 0.223655
rfingers 7.12502 -0 0
rthumb -6.66901 -54.0077 0.20145
415
root 3.82596 15.9343 -10.9783 3.51871 -24.2019 -5.85141
lfemur -25.5536 8.3269 -3.44829
ltibia 54.2415 -0 0
lfoot -17.5832 8.22812 0.540691
ltoes -4.86174 0 0
rfemur -36.4622 0.69514 6.1861
rtibia 47.6707 -0 0
rfoot 3.84173 0.542633 0.1075
rtoes -12.9495 0 0
lowerback 5.69957 2.06959 2.63055
upperback 2.02696 2.8686 -0.574023
thorax -0.90128 1.44287 -2.29963
lowerneck -6.59254 2.64956 8.0014
upperneck 3.8076 2.89685 -1.54764
head 2.6666 1.52962 -1.78312
lclavicle -2.49276e-14 1.04481e-14 -6.91935e-33
lhumerus -44.0602 -23.2844 97.3556
lradius 49.6485 -0 0
lwrist 13.1932 0 0
lhand -18.2192 0.581092 0.196666
lfingers 7.12502 -0 0
lthumb 8.05322 30.2924 0.159007
rclavicle -2.49276e-14 1.04481e-14 -6.91935e-33
rhumerus -45.5779 4.55297 -88.4988
rradius 70.8842 -0 0
rwrist 11.5086 0 0
rhand -33.2639 -24.0134 0.204363
rfingers 7.12502 -0 0
rthumb -6.46687 -53.8328 0.184076
416
root 3.76965 15.9281 -10.8587 3.4684 -24.7141 -5.92052
lfemur -25.8513 8.33127 -3.44049
ltibia 54.302 -0 0
lfoot -18.0394 8.0038 0.487707
ltoes -5.13059 0 0
rfemur -36.4157 1.0004 5.94515
rtibia 47.6206 -0 0
rfoot 4.02316 0.656561 0.096997
rtoes -13.1067 0 0
lowerback 5.79682 2.11429 2.67587
upperback 2.02935 2.93339 -0.597197
thorax -0.949889 1.47411 -2.35135
lowerneck -6.57713 2.7837 8.1324
upperneck 3.84463 3.07119 -1.64647
head 2.67935 1.61534 -1.83144
lclavicle -2.49409e-14 1.03474e-14 -6.24373e-33
lhumerus -44.0181 -23.2224 97.2142
lradius 49.5591 -0 0
lwrist 13.1151 0 0
lhand -18.4977 0.445807 0.177437
lfingers 7.12502 -0 0
lthumb 7.78505 30.1787 0.143463
rclavicle -2.49409e-14 1.03474e-14 -6.24373e-33
rhumerus -45.7524 4.43349 -88.4864
rradius 70.7306 -0 0
rwrist 11.5929 0 0
rhand -33.0543 -23.8264 0.184387
rfingers 7.12502 -0 0
rthumb -6.26478 -53.658 0.166084
417
root 3.71334 15.9219 -10.7391 3.41856 -25.2265 -5.98943
lfemur -26.149 8.33567 -3.43271
ltibia 54.3625 -0 0
lfoot -18.4953 7.7799 0.43294
ltoes -5.39944 0 0
rfemur -36.3706 1.30585 5.70441
rtibia 47.5705 -0 0
rfoot 4.20456 0.770455 0.0861331
rtoes -13.2639 0 0
lowerback 5.89411 2.15891 2.72126
upperback 2.03171 2.99817 -0.62037
thorax -0.998527 1.5053 -2.40309
lowerneck -6.56142 2.91781 8.26345
upperneck 3.88136 3.24559 -1.7452
head 2.69203 1.70108 -1.87975
lclavicle -2.49541e-14 1.02467e-14 -5.5448e-33
lhumerus -43.976 -23.1604 97.073
lradius 49.4698 -0 0
lwrist 13.0369 0 0
lhand -18.7762 0.310617 0.157552
lfingers 7.12502 -0 0
lthumb 7.51692 30.0651 0.127387
rclavicle -2.49541e-14 1.02467e-14 -5.5448e-33
rhumerus -45.927 4.31406 -88.4737
rradius 70.577 -0 0
rwrist 11.6772 0 0
rhand -32.8448 -23.6394 0.163727
rfingers 7.12502 -0 0
rthumb -6.06276 -53.4833 0.147477
